<svg xmlns="http://www.w3.org/2000/svg" width="796.65625" height="427.520263671875" viewBox="-379.2080993652344 -248.978271484375 796.65625 427.520263671875"><title>Neo4j Graph Visualization</title><desc>Created using Neo4j (http://www.neo4j.com/)</desc><g class="layer relationships"><g class="relationship" transform="translate(25.440601981857853 -219.9782652198127) rotate(515.4500795713236)"><path class="outline" fill="#A5ABB6" stroke="none" d="M 25 0.5 L 99.48410201633969 0.5 L 99.48410201633969 -0.5 L 25 -0.5 Z M 143.2731645163397 0.5 L 217.75726653267938 0.5 L 217.75726653267938 3.5 L 224.75726653267938 0 L 217.75726653267938 -3.5 L 217.75726653267938 -0.5 L 143.2731645163397 -0.5 Z"/><text text-anchor="middle" pointer-events="none" font-size="8px" fill="#000000" x="121.37863326633969" y="3" transform="rotate(180 121.37863326633969 0)" font-family="sans-serif">BOSS_OF</text></g><g class="relationship" transform="translate(25.440601981857853 -219.9782652198127) rotate(382.2642865238282)"><path class="outline" fill="#A5ABB6" stroke="none" d="M 25 0.5 L 110.20020877511752 0.5 L 110.20020877511752 -0.5 L 25 -0.5 Z M 153.98927127511752 0.5 L 239.18948005023503 0.5 L 239.18948005023503 3.5 L 246.18948005023503 0 L 239.18948005023503 -3.5 L 239.18948005023503 -0.5 L 153.98927127511752 -0.5 Z"/><text text-anchor="middle" pointer-events="none" font-size="8px" fill="#000000" x="132.09474002511752" y="3" font-family="sans-serif">BOSS_OF</text></g><g class="relationship" transform="translate(276.4118379149645 -117.23016147027502) rotate(408.19430757711774)"><path class="outline" fill="#A5ABB6" stroke="none" d="M 25 0.5 L 58.64026787014795 0.5 L 58.64026787014795 -0.5 L 25 -0.5 Z M 102.42933037014795 0.5 L 136.0695982402959 0.5 L 136.0695982402959 3.5 L 143.0695982402959 0 L 136.0695982402959 -3.5 L 136.0695982402959 -0.5 L 102.42933037014795 -0.5 Z"/><text text-anchor="middle" pointer-events="none" font-size="8px" fill="#000000" x="80.53479912014795" y="3" font-family="sans-serif">BOSS_OF</text></g><g class="relationship" transform="translate(276.4118379149645 -117.23016147027502) rotate(487.539124477147)"><path class="outline" fill="#A5ABB6" stroke="none" d="M 25 0.5 L 57.56056398339611 0.5 L 57.56056398339611 -0.5 L 25 -0.5 Z M 101.34962648339611 0.5 L 133.91019046679222 0.5 L 133.91019046679222 3.5 L 140.91019046679222 0 L 133.91019046679222 -3.5 L 133.91019046679222 -0.5 L 101.34962648339611 -0.5 Z"/><text text-anchor="middle" pointer-events="none" font-size="8px" fill="#000000" x="79.45509523339611" y="3" transform="rotate(180 79.45509523339611 0)" font-family="sans-serif">BOSS_OF</text></g><g class="relationship" transform="translate(175.322256302344 14.326243885422514) rotate(400.16881492190635)"><path class="outline" fill="#A5ABB6" stroke="none" d="M 25 0.5 L 79.41705786016325 0.5 L 79.41705786016325 -0.5 L 25 -0.5 Z M 123.20612036016325 0.5 L 177.6231782203265 0.5 L 177.6231782203265 3.5 L 184.6231782203265 0 L 177.6231782203265 -3.5 L 177.6231782203265 -0.5 L 123.20612036016325 -0.5 Z"/><text text-anchor="middle" pointer-events="none" font-size="8px" fill="#000000" x="101.31158911016325" y="3" font-family="sans-serif">BOSS_OF</text></g><g class="relationship" transform="translate(175.322256302344 14.326243885422514) rotate(503.6119730769837)"><path class="outline" fill="#A5ABB6" stroke="none" d="M 25 0.5 L 88.39771723339399 0.5 L 88.39771723339399 -0.5 L 25 -0.5 Z M 132.186779733394 0.5 L 195.58449696678798 0.5 L 195.58449696678798 3.5 L 202.58449696678798 0 L 195.58449696678798 -3.5 L 195.58449696678798 -0.5 L 132.186779733394 -0.5 Z"/><text text-anchor="middle" pointer-events="none" font-size="8px" fill="#000000" x="110.29224848339399" y="3" transform="rotate(180 110.29224848339399 0)" font-family="sans-serif">BOSS_OF</text></g><g class="relationship" transform="translate(175.322256302344 14.326243885422514) rotate(448.6677239711504)"><path class="outline" fill="#A5ABB6" stroke="none" d="M 25 0.5 L 40.72854595572909 0.5 L 40.72854595572909 -0.5 L 25 -0.5 Z M 84.51760845572909 0.5 L 100.24615441145818 0.5 L 100.24615441145818 3.5 L 107.24615441145818 0 L 100.24615441145818 -3.5 L 100.24615441145818 -0.5 L 84.51760845572909 -0.5 Z"/><text text-anchor="middle" pointer-events="none" font-size="8px" fill="#000000" x="62.62307720572909" y="3" font-family="sans-serif">BOSS_OF</text></g><g class="relationship" transform="translate(-201.7385110829961 -116.20763944863336) rotate(451.87238017426415)"><path class="outline" fill="#A5ABB6" stroke="none" d="M 25 0.5 L 38.17448035667008 0.5 L 38.17448035667008 -0.5 L 25 -0.5 Z M 81.96354285667007 0.5 L 95.13802321334016 0.5 L 95.13802321334016 3.5 L 102.13802321334016 0 L 95.13802321334016 -3.5 L 95.13802321334016 -0.5 L 81.96354285667007 -0.5 Z"/><text text-anchor="middle" pointer-events="none" font-size="8px" fill="#000000" x="60.06901160667008" y="3" transform="rotate(180 60.06901160667008 0)" font-family="sans-serif">BOSS_OF</text></g><g class="relationship" transform="translate(-201.7385110829961 -116.20763944863336) rotate(405.11532839377304)"><path class="outline" fill="#A5ABB6" stroke="none" d="M 25 0.5 L 64.2081246851042 0.5 L 64.2081246851042 -0.5 L 25 -0.5 Z M 107.9971871851042 0.5 L 147.2053118702084 0.5 L 147.2053118702084 3.5 L 154.2053118702084 0 L 147.2053118702084 -3.5 L 147.2053118702084 -0.5 L 107.9971871851042 -0.5 Z"/><text text-anchor="middle" pointer-events="none" font-size="8px" fill="#000000" x="86.1026559351042" y="3" font-family="sans-serif">BOSS_OF</text></g><g class="relationship" transform="translate(-201.7385110829961 -116.20763944863336) rotate(499.56523643138195)"><path class="outline" fill="#A5ABB6" stroke="none" d="M 25 0.5 L 72.13589882672919 0.5 L 72.13589882672919 -0.5 L 25 -0.5 Z M 115.92496132672919 0.5 L 163.06086015345838 0.5 L 163.06086015345838 3.5 L 170.06086015345838 0 L 163.06086015345838 -3.5 L 163.06086015345838 -0.5 L 115.92496132672919 -0.5 Z"/><text text-anchor="middle" pointer-events="none" font-size="8px" fill="#000000" x="94.03043007672919" y="3" transform="rotate(180 94.03043007672919 0)" font-family="sans-serif">BOSS_OF</text></g></g><g class="layer nodes"><g class="node" aria-label="graph-node205" transform="translate(25.440601981857853,-219.9782652198127)"><circle class="outline" cx="0" cy="0" r="25" fill="#A5ABB6" stroke="#9AA1AC" stroke-width="2px"/><text class="caption" text-anchor="middle" pointer-events="none" x="0" y="5" font-size="10px" fill="#FFFFFF" font-family="sans-serif"> BigBoss</text></g><g class="node" aria-label="graph-node206" transform="translate(276.4118379149645,-117.23016147027502)"><circle class="outline" cx="0" cy="0" r="25" fill="#A5ABB6" stroke="#9AA1AC" stroke-width="2px"/><text class="caption" text-anchor="middle" pointer-events="none" x="0" y="5" font-size="10px" fill="#FFFFFF" font-family="sans-serif"> yhGoq</text></g><g class="node" aria-label="graph-node207" transform="translate(-350.2080954285243,10.30529146387508)"><circle class="outline" cx="0" cy="0" r="25" fill="#A5ABB6" stroke="#9AA1AC" stroke-width="2px"/><text class="caption" text-anchor="middle" pointer-events="none" x="0" y="5" font-size="10px" fill="#FFFFFF" font-family="sans-serif"> nUBvPx…</text></g><g class="node" aria-label="graph-node208" transform="translate(388.448129787134,8.050559936446291)"><circle class="outline" cx="0" cy="0" r="25" fill="#A5ABB6" stroke="#9AA1AC" stroke-width="2px"/><text class="caption" text-anchor="middle" pointer-events="none" x="0" y="5" font-size="10px" fill="#FFFFFF" font-family="sans-serif"> wsTOZL…</text></g><g class="node" aria-label="graph-node209" transform="translate(175.322256302344,14.326243885422514)"><circle class="outline" cx="0" cy="0" r="25" fill="#A5ABB6" stroke="#9AA1AC" stroke-width="2px"/><text class="caption" text-anchor="middle" pointer-events="none" x="0" y="5" font-size="10px" fill="#FFFFFF" font-family="sans-serif"> qNMRpt…</text></g><g class="node" aria-label="graph-node210" transform="translate(-7.887311641395058,149.34090039905587)"><circle class="outline" cx="0" cy="0" r="25" fill="#A5ABB6" stroke="#9AA1AC" stroke-width="2px"/><text class="caption" text-anchor="middle" pointer-events="none" x="0" y="5" font-size="10px" fill="#FFFFFF" font-family="sans-serif"> hIkxWu…</text></g><g class="node" aria-label="graph-node211" transform="translate(-205.89254036915636,10.862502548948221)"><circle class="outline" cx="0" cy="0" r="25" fill="#A5ABB6" stroke="#9AA1AC" stroke-width="2px"/><text class="caption" text-anchor="middle" pointer-events="none" x="0" y="5" font-size="10px" fill="#FFFFFF" font-family="sans-serif"> UMfUAgP</text></g><g class="node" aria-label="graph-node212" transform="translate(-75.27654055811584,10.764459114251586)"><circle class="outline" cx="0" cy="0" r="25" fill="#A5ABB6" stroke="#9AA1AC" stroke-width="2px"/><text class="caption" text-anchor="middle" pointer-events="none" x="0" y="5" font-size="10px" fill="#FFFFFF" font-family="sans-serif"> nKwRR…</text></g><g class="node" aria-label="graph-node213" transform="translate(-201.7385110829961,-116.20763944863336)"><circle class="outline" cx="0" cy="0" r="25" fill="#A5ABB6" stroke="#9AA1AC" stroke-width="2px"/><text class="caption" text-anchor="middle" pointer-events="none" x="0" y="5" font-size="10px" fill="#FFFFFF" font-family="sans-serif"> XlgdKNf…</text></g><g class="node" aria-label="graph-node214" transform="translate(178.39704656315365,146.53664824707351)"><circle class="outline" cx="0" cy="0" r="25" fill="#A5ABB6" stroke="#9AA1AC" stroke-width="2px"/><text class="caption" text-anchor="middle" pointer-events="none" x="0" y="5" font-size="10px" fill="#FFFFFF" font-family="sans-serif"> EIYzxgz…</text></g><g class="node" aria-label="graph-node215" transform="translate(335.5052265853931,149.54197107161409)"><circle class="outline" cx="0" cy="0" r="25" fill="#A5ABB6" stroke="#9AA1AC" stroke-width="2px"/><text class="caption" text-anchor="middle" pointer-events="none" x="0" y="5" font-size="10px" fill="#FFFFFF" font-family="sans-serif"> MnwrMx…</text></g></g></svg>