<?xml version="1.0" encoding="UTF-8"?>
<!DOCTYPE svg PUBLIC "-//W3C//DTD SVG 1.1//EN" "http://www.w3.org/Graphics/SVG/1.1/DTD/svg11.dtd">
<svg version="1.2" width="160mm" height="90mm" viewBox="0 0 16000 9000" preserveAspectRatio="xMidYMid" fill-rule="evenodd" stroke-width="28.222" stroke-linejoin="round" xmlns="http://www.w3.org/2000/svg" xmlns:ooo="http://xml.openoffice.org/svg/export" xmlns:xlink="http://www.w3.org/1999/xlink" xmlns:presentation="http://sun.com/xmlns/staroffice/presentation" xmlns:smil="http://www.w3.org/2001/SMIL20/" xmlns:anim="urn:oasis:names:tc:opendocument:xmlns:animation:1.0" xml:space="preserve">
 <defs class="ClipPathGroup">
  <clipPath id="presentation_clip_path" clipPathUnits="userSpaceOnUse">
   <rect x="0" y="0" width="16000" height="9000"/>
  </clipPath>
  <clipPath id="presentation_clip_path_shrink" clipPathUnits="userSpaceOnUse">
   <rect x="16" y="9" width="15968" height="8982"/>
  </clipPath>
 </defs>
 <defs class="TextShapeIndex">
  <g ooo:slide="id1" ooo:id-list="id3"/>
 </defs>
 <defs class="EmbeddedBulletChars">
  <g id="bullet-char-template-57356" transform="scale(0.00048828125,-0.00048828125)">
   <path d="M 580,1141 L 1163,571 580,0 -4,571 580,1141 Z"/>
  </g>
  <g id="bullet-char-template-57354" transform="scale(0.00048828125,-0.00048828125)">
   <path d="M 8,1128 L 1137,1128 1137,0 8,0 8,1128 Z"/>
  </g>
  <g id="bullet-char-template-10146" transform="scale(0.00048828125,-0.00048828125)">
   <path d="M 174,0 L 602,739 174,1481 1456,739 174,0 Z M 1358,739 L 309,1346 659,739 1358,739 Z"/>
  </g>
  <g id="bullet-char-template-10132" transform="scale(0.00048828125,-0.00048828125)">
   <path d="M 2015,739 L 1276,0 717,0 1260,543 174,543 174,936 1260,936 717,1481 1274,1481 2015,739 Z"/>
  </g>
  <g id="bullet-char-template-10007" transform="scale(0.00048828125,-0.00048828125)">
   <path d="M 0,-2 C -7,14 -16,27 -25,37 L 356,567 C 262,823 215,952 215,954 215,979 228,992 255,992 264,992 276,990 289,987 310,991 331,999 354,1012 L 381,999 492,748 772,1049 836,1024 860,1049 C 881,1039 901,1025 922,1006 886,937 835,863 770,784 769,783 710,716 594,584 L 774,223 C 774,196 753,168 711,139 L 727,119 C 717,90 699,76 672,76 641,76 570,178 457,381 L 164,-76 C 142,-110 111,-127 72,-127 30,-127 9,-110 8,-76 1,-67 -2,-52 -2,-32 -2,-23 -1,-13 0,-2 Z"/>
  </g>
  <g id="bullet-char-template-10004" transform="scale(0.00048828125,-0.00048828125)">
   <path d="M 285,-33 C 182,-33 111,30 74,156 52,228 41,333 41,471 41,549 55,616 82,672 116,743 169,778 240,778 293,778 328,747 346,684 L 369,508 C 377,444 397,411 428,410 L 1163,1116 C 1174,1127 1196,1133 1229,1133 1271,1133 1292,1118 1292,1087 L 1292,965 C 1292,929 1282,901 1262,881 L 442,47 C 390,-6 338,-33 285,-33 Z"/>
  </g>
  <g id="bullet-char-template-9679" transform="scale(0.00048828125,-0.00048828125)">
   <path d="M 813,0 C 632,0 489,54 383,161 276,268 223,411 223,592 223,773 276,916 383,1023 489,1130 632,1184 813,1184 992,1184 1136,1130 1245,1023 1353,916 1407,772 1407,592 1407,412 1353,268 1245,161 1136,54 992,0 813,0 Z"/>
  </g>
  <g id="bullet-char-template-8226" transform="scale(0.00048828125,-0.00048828125)">
   <path d="M 346,457 C 273,457 209,483 155,535 101,586 74,649 74,723 74,796 101,859 155,911 209,963 273,989 346,989 419,989 480,963 531,910 582,859 608,796 608,723 608,648 583,586 532,535 482,483 420,457 346,457 Z"/>
  </g>
  <g id="bullet-char-template-8211" transform="scale(0.00048828125,-0.00048828125)">
   <path d="M -4,459 L 1135,459 1135,606 -4,606 -4,459 Z"/>
  </g>
  <g id="bullet-char-template-61548" transform="scale(0.00048828125,-0.00048828125)">
   <path d="M 173,740 C 173,903 231,1043 346,1159 462,1274 601,1332 765,1332 928,1332 1067,1274 1183,1159 1299,1043 1357,903 1357,740 1357,577 1299,437 1183,322 1067,206 928,148 765,148 601,148 462,206 346,322 231,437 173,577 173,740 Z"/>
  </g>
 </defs>
 <g>
  <g id="id2" class="Master_Slide">
   <g id="bg-id2" class="Background"/>
   <g id="bo-id2" class="BackgroundObjects"/>
  </g>
 </g>
 <g class="SlideGroup">
  <g>
   <g id="container-id1">
    <g id="id1" class="Slide" clip-path="url(#presentation_clip_path)">
     <g class="Page">
      <g class="Graphic">
       <g id="id3">
        <rect class="BoundingBox" stroke="none" fill="none" x="12528" y="44" width="3452" height="1457"/>
        <defs>
         <clipPath id="clip_path_1" clipPathUnits="userSpaceOnUse">
          <path d="M 12528,44 L 15979,44 15979,1500 12528,1500 12528,44 Z"/>
         </clipPath>
        </defs>
        <g clip-path="url(#clip_path_1)">
         <path fill="rgb(255,255,255)" stroke="none" d="M 10605,4729 L 5231,4729 5231,44 15979,44 15979,4729 10605,4729 Z"/>
         <path fill="rgb(25,25,25)" stroke="none" d="M 13955,595 C 13880,595 13821,653 13821,728 13821,805 13878,864 13955,864 14031,864 14089,805 14089,728 14089,653 14030,595 13955,595 L 13955,595 Z M 13955,824 C 13905,824 13866,781 13866,728 13866,676 13905,635 13955,635 14005,635 14044,676 14044,728 14043,782 14004,824 13955,824 L 13955,824 Z"/>
         <path fill="rgb(25,25,25)" stroke="none" d="M 14236,711 C 14209,700 14186,690 14186,669 14186,650 14204,636 14228,636 14257,636 14279,652 14286,658 L 14305,622 C 14299,617 14273,595 14228,595 14179,595 14142,627 14142,670 14142,714 14181,731 14215,746 14243,758 14266,768 14266,790 14266,813 14246,823 14226,823 14193,823 14167,802 14161,796 L 14137,829 C 14143,835 14174,864 14225,864 14275,864 14311,833 14311,788 14310,741 14271,725 14236,711 L 14236,711 Z"/>
         <path fill="rgb(25,25,25)" stroke="none" d="M 14529,600 L 14360,600 14360,636 14424,636 14424,859 14465,859 14465,636 14529,636 14529,600 Z"/>
         <path fill="rgb(25,25,25)" stroke="none" d="M 13516,437 C 13439,360 13334,312 13217,312 12985,312 12797,501 12797,733 12797,965 12985,1153 13217,1153 13333,1153 13438,1106 13514,1030 13591,954 13723,849 13723,733 13724,618 13591,513 13516,437 L 13516,437 Z M 13494,972 C 13434,1033 13349,1070 13257,1070 13246,1070 13236,1070 13226,1069 13221,1068 13216,1068 13210,1067 13200,1069 13190,1070 13179,1070 13174,1070 13169,1070 13164,1070 12978,1070 12827,919 12827,734 12827,548 12978,397 13164,397 13169,397 13174,397 13179,398 13190,398 13200,399 13210,400 13215,400 13220,399 13225,399 13236,398 13246,397 13256,397 13350,397 13434,435 13495,497 13556,558 13662,642 13662,734 13662,827 13555,911 13494,972 L 13494,972 Z"/>
         <path fill="rgb(215,40,100)" stroke="none" d="M 12920,734 C 12920,564 13042,427 13210,401 L 13210,401 C 13003,406 12858,554 12858,734 12858,914 13032,1072 13210,1067 13210,1067 13200,1068 13210,1067 13047,1044 12920,904 12920,734 L 12920,734 Z"/>
         <path fill="rgb(140,25,95)" stroke="none" d="M 13433,972 C 13371,1034 13291,1060 13210,1067 13215,1068 13221,1068 13226,1069 13236,1070 13246,1070 13257,1070 13349,1070 13434,1033 13494,972 13555,911 13662,827 13662,734 13662,642 13556,558 13495,497 13434,436 13350,397 13257,397 13246,397 13236,398 13226,399 13220,399 13215,400 13210,400 13291,408 13379,442 13434,497 13494,558 13600,641 13600,734 13600,827 13494,911 13433,972 L 13433,972 Z"/>
         <path fill="rgb(140,25,95)" stroke="none" d="M 12858,734 C 12858,554 13003,406 13210,401 13200,399 13190,398 13179,398 13174,398 13169,397 13164,397 12978,397 12827,548 12827,734 12827,920 12978,1071 13164,1071 13169,1071 13174,1070 13180,1070 13190,1070 13200,1069 13210,1067 13033,1072 12858,914 12858,734 L 12858,734 Z"/>
         <path fill="rgb(215,40,100)" stroke="none" d="M 13402,972 C 13351,1022 13285,1057 13210,1067 13291,1060 13371,1034 13433,972 13494,911 13600,827 13600,734 13600,642 13494,558 13434,497 13379,443 13291,408 13210,401 13285,411 13352,446 13403,497 13463,558 13569,642 13569,734 13569,827 13463,911 13402,972 L 13402,972 Z"/>
         <path fill="rgb(25,25,25)" stroke="none" d="M 13853,1062 L 13902,1062 13902,1070 13844,1070 13844,969 13901,969 13901,977 13853,977 13853,1015 13898,1015 13898,1023 13853,1023 13853,1062 13853,1062 Z"/>
         <path fill="rgb(25,25,25)" stroke="none" d="M 13971,1059 C 13971,1063 13972,1064 13975,1064 13977,1064 13978,1064 13980,1063 L 13980,1069 C 13978,1071 13975,1071 13972,1071 13965,1071 13963,1067 13963,1062 13957,1068 13949,1072 13939,1072 13921,1072 13918,1059 13918,1053 13918,1032 13936,1029 13952,1029 13956,1029 13959,1029 13962,1029 L 13962,1022 C 13962,1011 13959,1005 13946,1005 13935,1005 13931,1009 13929,1018 L 13921,1016 C 13923,1003 13931,997 13947,997 13964,997 13971,1004 13971,1022 L 13971,1059 13971,1059 Z M 13962,1037 C 13960,1036 13957,1036 13953,1036 13943,1036 13928,1037 13928,1051 13928,1058 13930,1064 13941,1064 13949,1064 13958,1060 13962,1055 L 13962,1037 13962,1037 Z"/>
         <path fill="rgb(25,25,25)" stroke="none" d="M 14043,1019 L 14034,1020 C 14032,1011 14030,1005 14018,1005 14006,1005 14003,1011 14003,1017 14003,1025 14009,1027 14020,1030 14033,1033 14044,1036 14044,1051 14044,1064 14035,1072 14018,1072 14002,1072 13993,1066 13990,1050 L 13999,1049 C 14001,1057 14005,1064 14018,1064 14028,1064 14035,1061 14035,1052 14035,1043 14029,1042 14019,1039 14007,1036 13993,1034 13993,1018 13993,1004 14005,997 14018,997 14035,997 14041,1006 14043,1019 L 14043,1019 Z"/>
         <path fill="rgb(25,25,25)" stroke="none" d="M 14099,1067 C 14096,1070 14089,1072 14083,1072 14070,1072 14064,1066 14064,1053 L 14064,1007 14053,1007 14053,999 14064,999 14064,978 14073,977 14073,999 14093,999 14093,1007 14073,1007 14073,1052 C 14073,1060 14075,1064 14084,1064 14089,1064 14094,1063 14097,1061 L 14099,1067 14099,1067 Z"/>
         <path fill="rgb(25,25,25)" stroke="none" d="M 14107,1035 C 14107,1008 14122,997 14140,997 14160,997 14168,1011 14168,1028 14168,1031 14168,1034 14167,1037 L 14117,1037 C 14118,1058 14128,1064 14140,1064 14151,1064 14156,1059 14158,1050 L 14167,1052 C 14164,1066 14153,1072 14139,1072 14114,1072 14107,1054 14107,1035 L 14107,1035 Z M 14158,1029 C 14158,1014 14153,1006 14140,1006 14129,1006 14118,1012 14117,1029 L 14158,1029 14158,1029 Z"/>
         <path fill="rgb(25,25,25)" stroke="none" d="M 14223,1007 C 14215,1006 14203,1010 14198,1015 L 14198,1070 14188,1070 14188,999 14196,999 14197,1009 C 14204,1000 14211,997 14221,997 14222,997 14223,997 14223,997 L 14223,1007 14223,1007 Z"/>
         <path fill="rgb(25,25,25)" stroke="none" d="M 14295,1070 L 14285,1070 14285,1023 C 14285,1012 14282,1006 14271,1006 14261,1006 14251,1012 14247,1016 L 14247,1070 14237,1070 14237,999 14246,999 14246,1008 C 14254,1002 14263,997 14273,997 14288,997 14295,1006 14295,1022 L 14295,1070 14295,1070 Z"/>
         <path fill="rgb(25,25,25)" stroke="none" d="M 14358,994 C 14358,1023 14414,1007 14414,1043 14414,1064 14397,1072 14379,1072 14357,1072 14346,1062 14343,1044 L 14353,1042 C 14356,1054 14361,1064 14379,1064 14391,1064 14404,1060 14404,1045 14404,1014 14348,1032 14348,994 14348,978 14362,967 14381,967 14399,967 14411,975 14414,995 L 14405,996 C 14403,987 14399,976 14382,976 14364,976 14358,984 14358,994 L 14358,994 Z"/>
         <path fill="rgb(25,25,25)" stroke="none" d="M 14445,1070 L 14422,999 14432,999 14451,1061 14468,999 14478,999 14495,1060 14514,999 14522,999 14500,1070 14489,1070 14473,1009 14456,1070 14445,1070 14445,1070 Z"/>
         <path fill="rgb(25,25,25)" stroke="none" d="M 14541,982 C 14537,982 14534,979 14534,974 14534,970 14537,967 14541,967 14546,967 14549,970 14549,974 14549,979 14546,982 14541,982 L 14541,982 Z M 14546,1070 L 14536,1070 14536,999 14546,999 14546,1070 14546,1070 Z"/>
         <path fill="rgb(25,25,25)" stroke="none" d="M 14607,1067 C 14604,1070 14597,1072 14591,1072 14578,1072 14572,1066 14572,1053 L 14572,1007 14561,1007 14561,999 14572,999 14572,978 14581,977 14581,999 14601,999 14601,1007 14581,1007 14581,1052 C 14581,1060 14583,1064 14592,1064 14597,1064 14602,1063 14605,1061 L 14607,1067 14607,1067 Z"/>
         <path fill="rgb(25,25,25)" stroke="none" d="M 14624,1062 L 14669,1062 14669,1070 14613,1070 14613,1064 14656,1007 14614,1007 14614,999 14667,999 14667,1005 14624,1062 14624,1062 Z"/>
         <path fill="rgb(25,25,25)" stroke="none" d="M 14678,1035 C 14678,1008 14693,997 14711,997 14731,997 14739,1011 14739,1028 14739,1031 14738,1034 14738,1037 L 14688,1037 C 14689,1058 14699,1064 14711,1064 14722,1064 14727,1059 14729,1050 L 14738,1052 C 14735,1066 14723,1072 14710,1072 14685,1072 14678,1054 14678,1035 L 14678,1035 Z M 14729,1029 C 14729,1014 14724,1006 14710,1006 14699,1006 14689,1012 14688,1029 L 14729,1029 14729,1029 Z"/>
         <path fill="rgb(25,25,25)" stroke="none" d="M 14794,1007 C 14786,1006 14774,1010 14769,1015 L 14769,1070 14759,1070 14759,999 14767,999 14768,1009 C 14775,1000 14782,997 14792,997 14793,997 14793,997 14794,997 L 14794,1007 14794,1007 Z"/>
         <path fill="rgb(25,25,25)" stroke="none" d="M 14818,1070 L 14808,1070 14808,965 14818,965 14818,1070 14818,1070 Z"/>
         <path fill="rgb(25,25,25)" stroke="none" d="M 14891,1059 C 14891,1063 14892,1064 14896,1064 14897,1064 14898,1064 14900,1063 L 14901,1069 C 14898,1071 14895,1071 14892,1071 14885,1071 14883,1067 14883,1062 14878,1068 14869,1072 14859,1072 14841,1072 14838,1059 14838,1053 14838,1032 14856,1029 14872,1029 14877,1029 14879,1029 14882,1029 L 14882,1022 C 14882,1011 14879,1005 14866,1005 14855,1005 14851,1009 14850,1018 L 14841,1016 C 14843,1003 14852,997 14867,997 14884,997 14891,1004 14891,1022 L 14891,1059 14891,1059 Z M 14882,1037 C 14880,1036 14877,1036 14873,1036 14864,1036 14848,1037 14848,1051 14848,1058 14850,1064 14861,1064 14870,1064 14878,1060 14882,1055 L 14882,1037 14882,1037 Z"/>
         <path fill="rgb(25,25,25)" stroke="none" d="M 14974,1070 L 14965,1070 14965,1023 C 14965,1012 14961,1006 14950,1006 14940,1006 14930,1012 14926,1016 L 14926,1070 14917,1070 14917,999 14925,999 14925,1008 C 14933,1002 14942,997 14952,997 14967,997 14974,1006 14974,1022 L 14974,1070 14974,1070 Z"/>
         <path fill="rgb(25,25,25)" stroke="none" d="M 15054,1070 L 15045,1070 15045,1062 C 15038,1068 15031,1072 15020,1072 15004,1072 14993,1062 14993,1035 14993,1008 15007,997 15023,997 15032,997 15039,1000 15044,1004 L 15044,965 15054,965 15054,1070 15054,1070 Z M 15044,1013 C 15041,1010 15033,1005 15024,1005 15008,1005 15003,1017 15003,1036 15003,1055 15009,1064 15023,1064 15031,1064 15040,1059 15044,1053 L 15044,1013 15044,1013 Z"/>
         <path fill="rgb(25,25,25)" stroke="none" d="M 13906,1198 L 13906,1130 13915,1130 13915,1198 C 13915,1221 13902,1232 13879,1232 13854,1232 13843,1220 13843,1198 L 13843,1130 13853,1130 13853,1197 C 13853,1217 13863,1224 13880,1224 13897,1224 13906,1218 13906,1198 L 13906,1198 Z"/>
         <path fill="rgb(25,25,25)" stroke="none" d="M 13999,1231 L 13990,1231 13990,1184 C 13990,1173 13986,1166 13975,1166 13966,1166 13956,1173 13951,1177 L 13951,1231 13942,1231 13942,1159 13950,1159 13951,1168 C 13958,1163 13967,1158 13977,1158 13993,1158 13999,1167 13999,1183 L 13999,1231 13999,1231 Z"/>
         <path fill="rgb(25,25,25)" stroke="none" d="M 14028,1142 C 14023,1142 14021,1140 14021,1135 14021,1130 14023,1127 14028,1127 14033,1127 14036,1130 14036,1135 14036,1140 14033,1142 14028,1142 L 14028,1142 Z M 14033,1231 L 14023,1231 14023,1159 14033,1159 14033,1231 14033,1231 Z"/>
         <path fill="rgb(25,25,25)" stroke="none" d="M 14074,1231 L 14046,1159 14056,1159 14079,1222 14102,1159 14112,1159 14084,1231 14074,1231 14074,1231 Z"/>
         <path fill="rgb(25,25,25)" stroke="none" d="M 14120,1195 C 14120,1169 14135,1158 14153,1158 14172,1158 14180,1171 14180,1188 14180,1191 14180,1194 14180,1197 L 14130,1197 C 14130,1218 14140,1224 14153,1224 14164,1224 14168,1220 14170,1211 L 14179,1212 C 14176,1226 14165,1233 14152,1233 14127,1233 14120,1215 14120,1195 L 14120,1195 Z M 14170,1189 C 14171,1175 14165,1166 14152,1166 14141,1166 14130,1173 14130,1189 L 14170,1189 14170,1189 Z"/>
         <path fill="rgb(25,25,25)" stroke="none" d="M 14236,1168 C 14227,1166 14216,1170 14210,1176 L 14210,1231 14201,1231 14201,1159 14208,1159 14209,1169 C 14216,1160 14224,1158 14234,1158 14234,1158 14235,1158 14236,1158 L 14236,1168 14236,1168 Z"/>
         <path fill="rgb(25,25,25)" stroke="none" d="M 14295,1180 L 14286,1181 C 14284,1171 14281,1166 14270,1166 14257,1166 14254,1171 14254,1178 14254,1186 14261,1188 14271,1191 14284,1194 14296,1196 14296,1212 14296,1224 14287,1232 14270,1232 14254,1232 14244,1226 14242,1211 L 14251,1209 C 14253,1218 14256,1224 14270,1224 14280,1224 14287,1221 14287,1212 14287,1204 14281,1202 14270,1200 14258,1196 14245,1195 14245,1178 14245,1165 14256,1158 14270,1158 14287,1158 14293,1167 14295,1180 L 14295,1180 Z"/>
         <path fill="rgb(25,25,25)" stroke="none" d="M 14320,1142 C 14316,1142 14313,1140 14313,1135 14313,1130 14316,1127 14320,1127 14325,1127 14328,1130 14328,1135 14328,1140 14325,1142 14320,1142 L 14320,1142 Z M 14325,1231 L 14316,1231 14316,1159 14325,1159 14325,1231 14325,1231 Z"/>
         <path fill="rgb(25,25,25)" stroke="none" d="M 14386,1228 C 14383,1230 14376,1233 14370,1233 14357,1233 14351,1227 14351,1214 L 14351,1167 14340,1167 14340,1159 14351,1159 14351,1139 14360,1138 14360,1159 14380,1159 14380,1167 14360,1167 14360,1212 C 14360,1220 14362,1225 14371,1225 14376,1225 14381,1223 14384,1221 L 14386,1228 14386,1228 Z"/>
         <path fill="rgb(25,25,25)" stroke="none" d="M 14388,1159 L 14398,1159 14419,1220 14441,1159 14451,1159 C 14442,1183 14431,1211 14422,1235 14414,1255 14409,1262 14397,1262 14392,1262 14387,1261 14384,1259 L 14385,1252 C 14387,1253 14393,1254 14397,1254 14404,1254 14409,1249 14415,1231 L 14388,1159 14388,1159 Z"/>
         <path fill="rgb(25,25,25)" stroke="none" d="M 14492,1196 C 14492,1172 14504,1158 14526,1158 14548,1158 14557,1173 14557,1194 14557,1217 14547,1233 14524,1233 14500,1233 14492,1217 14492,1196 L 14492,1196 Z M 14547,1195 C 14547,1173 14539,1166 14525,1166 14511,1166 14501,1175 14501,1195 14501,1215 14509,1225 14525,1225 14538,1225 14547,1216 14547,1195 L 14547,1195 Z"/>
         <path fill="rgb(25,25,25)" stroke="none" d="M 14607,1134 C 14605,1133 14600,1132 14597,1132 14591,1132 14586,1135 14586,1145 L 14586,1159 14606,1159 14606,1167 14586,1167 14586,1231 14577,1231 14577,1167 14566,1167 14566,1159 14577,1159 14577,1147 C 14577,1132 14583,1124 14596,1124 14601,1124 14605,1125 14608,1126 L 14607,1134 14607,1134 Z"/>
         <path fill="rgb(25,25,25)" stroke="none" d="M 14692,1130 L 14727,1231 14717,1231 14706,1198 14665,1198 14654,1231 14645,1231 14679,1130 14692,1130 14692,1130 Z M 14685,1137 L 14668,1190 14703,1190 14685,1137 14685,1137 Z"/>
         <path fill="rgb(25,25,25)" stroke="none" d="M 14746,1159 L 14754,1159 14754,1168 C 14761,1163 14769,1158 14780,1158 14795,1158 14806,1167 14806,1193 14806,1221 14792,1232 14776,1232 14767,1232 14760,1229 14755,1225 L 14755,1260 14746,1260 14746,1159 14746,1159 Z M 14755,1216 C 14759,1219 14767,1225 14776,1225 14791,1225 14797,1212 14797,1193 14797,1173 14791,1166 14778,1166 14769,1166 14760,1172 14755,1176 L 14755,1216 14755,1216 Z"/>
         <path fill="rgb(25,25,25)" stroke="none" d="M 14826,1159 L 14835,1159 14835,1168 C 14842,1163 14850,1158 14861,1158 14876,1158 14887,1167 14887,1193 14887,1221 14873,1232 14856,1232 14848,1232 14841,1229 14835,1225 L 14835,1260 14826,1260 14826,1159 14826,1159 Z M 14836,1216 C 14839,1219 14847,1225 14856,1225 14872,1225 14877,1212 14877,1193 14877,1173 14871,1166 14858,1166 14849,1166 14840,1172 14836,1176 L 14836,1216 14836,1216 Z"/>
         <path fill="rgb(25,25,25)" stroke="none" d="M 14916,1231 L 14907,1231 14907,1125 14916,1125 14916,1231 14916,1231 Z"/>
         <path fill="rgb(25,25,25)" stroke="none" d="M 14946,1142 C 14941,1142 14938,1140 14938,1135 14938,1130 14941,1127 14946,1127 14950,1127 14953,1130 14953,1135 14953,1140 14950,1142 14946,1142 L 14946,1142 Z M 14950,1231 L 14941,1231 14941,1159 14950,1159 14950,1231 14950,1231 Z"/>
         <path fill="rgb(25,25,25)" stroke="none" d="M 14970,1195 C 14970,1169 14985,1158 15003,1158 15022,1158 15030,1171 15030,1188 15030,1191 15030,1194 15030,1197 L 14980,1197 C 14980,1218 14990,1224 15003,1224 15014,1224 15018,1220 15021,1211 L 15029,1212 C 15026,1226 15015,1233 15002,1233 14977,1233 14970,1215 14970,1195 L 14970,1195 Z M 15021,1189 C 15021,1175 15015,1166 15002,1166 14991,1166 14981,1173 14980,1189 L 15021,1189 15021,1189 Z"/>
         <path fill="rgb(25,25,25)" stroke="none" d="M 15106,1231 L 15098,1231 15097,1223 C 15091,1228 15083,1232 15073,1232 15057,1232 15046,1222 15046,1196 15046,1168 15060,1158 15076,1158 15084,1158 15092,1161 15097,1165 L 15097,1125 15106,1125 15106,1231 15106,1231 Z M 15097,1173 C 15093,1171 15085,1166 15076,1166 15061,1166 15055,1178 15055,1196 15055,1216 15061,1225 15075,1225 15084,1225 15092,1219 15097,1214 L 15097,1173 15097,1173 Z"/>
         <path fill="rgb(25,25,25)" stroke="none" d="M 15170,1154 C 15170,1184 15225,1168 15225,1204 15225,1225 15209,1233 15191,1233 15169,1233 15158,1223 15155,1204 L 15165,1203 C 15167,1214 15173,1224 15191,1224 15203,1224 15216,1220 15216,1205 15216,1174 15160,1193 15160,1155 15160,1138 15174,1128 15193,1128 15211,1128 15223,1135 15225,1156 L 15216,1157 C 15214,1147 15210,1136 15194,1136 15176,1136 15170,1144 15170,1154 L 15170,1154 Z"/>
         <path fill="rgb(25,25,25)" stroke="none" d="M 15241,1196 C 15241,1171 15253,1158 15274,1158 15289,1158 15300,1166 15300,1182 L 15291,1183 C 15290,1172 15284,1166 15274,1166 15262,1166 15250,1172 15250,1195 15250,1218 15262,1224 15273,1224 15283,1224 15290,1220 15292,1208 L 15301,1210 C 15298,1226 15286,1233 15272,1233 15249,1233 15241,1217 15241,1196 L 15241,1196 Z"/>
         <path fill="rgb(25,25,25)" stroke="none" d="M 15325,1142 C 15320,1142 15318,1140 15318,1135 15318,1130 15320,1127 15325,1127 15330,1127 15333,1130 15333,1135 15333,1140 15330,1142 15325,1142 L 15325,1142 Z M 15330,1231 L 15320,1231 15320,1159 15330,1159 15330,1231 15330,1231 Z"/>
         <path fill="rgb(25,25,25)" stroke="none" d="M 15349,1195 C 15349,1169 15364,1158 15382,1158 15402,1158 15410,1171 15410,1188 15410,1191 15410,1194 15409,1197 L 15359,1197 C 15360,1218 15370,1224 15382,1224 15393,1224 15398,1220 15400,1211 L 15409,1212 C 15406,1226 15394,1233 15381,1233 15356,1233 15349,1215 15349,1195 L 15349,1195 Z M 15400,1189 C 15400,1175 15395,1166 15381,1166 15371,1166 15360,1173 15359,1189 L 15400,1189 15400,1189 Z"/>
         <path fill="rgb(25,25,25)" stroke="none" d="M 15488,1231 L 15478,1231 15478,1184 C 15478,1173 15474,1166 15463,1166 15454,1166 15444,1173 15440,1177 L 15440,1231 15430,1231 15430,1159 15438,1159 15439,1168 C 15447,1163 15456,1158 15466,1158 15481,1158 15487,1167 15487,1183 L 15487,1231 15488,1231 Z"/>
         <path fill="rgb(25,25,25)" stroke="none" d="M 15507,1196 C 15507,1171 15519,1158 15540,1158 15555,1158 15566,1166 15566,1182 L 15557,1183 C 15556,1172 15550,1166 15540,1166 15528,1166 15516,1172 15516,1195 15516,1218 15528,1224 15539,1224 15550,1224 15556,1220 15558,1208 L 15567,1210 C 15564,1226 15552,1233 15539,1233 15515,1233 15507,1217 15507,1196 L 15507,1196 Z"/>
         <path fill="rgb(25,25,25)" stroke="none" d="M 15581,1195 C 15581,1169 15596,1158 15615,1158 15634,1158 15642,1171 15642,1188 15642,1191 15642,1194 15642,1197 L 15592,1197 C 15592,1218 15602,1224 15614,1224 15626,1224 15630,1220 15632,1211 L 15641,1212 C 15638,1226 15627,1233 15614,1233 15589,1233 15581,1215 15581,1195 L 15581,1195 Z M 15632,1189 C 15633,1175 15627,1166 15614,1166 15603,1166 15592,1173 15592,1189 L 15632,1189 15632,1189 Z"/>
         <path fill="rgb(25,25,25)" stroke="none" d="M 15709,1180 L 15700,1181 C 15698,1171 15695,1166 15684,1166 15671,1166 15668,1171 15668,1178 15668,1186 15675,1188 15686,1191 15699,1194 15710,1196 15710,1212 15710,1224 15701,1232 15684,1232 15668,1232 15658,1226 15656,1211 L 15665,1209 C 15667,1218 15671,1224 15684,1224 15694,1224 15701,1221 15701,1212 15701,1204 15695,1202 15684,1200 15673,1196 15659,1195 15659,1178 15659,1165 15671,1158 15684,1158 15701,1158 15708,1167 15709,1180 L 15709,1180 Z"/>
        </g>
       </g>
      </g>
     </g>
    </g>
   </g>
  </g>
 </g>
</svg>